<svg width="16" height="11" viewBox="0 0 16 11" fill="none" xmlns="http://www.w3.org/2000/svg">
<path fill-rule="evenodd" clip-rule="evenodd" d="M13.8248 2.58781L8.21081 6.92622C8.10807 7.00525 7.984 7.04477 7.85993 7.04477C7.7353 7.04477 7.61123 7.00525 7.50849 6.92622L1.89445 2.58781C1.65249 2.40104 1.61375 2.05999 1.80744 1.82667C2.00168 1.59389 2.35537 1.55653 2.59677 1.74276L7.85993 5.80995L13.1225 1.74276C13.3645 1.55599 13.7176 1.59335 13.9119 1.82667C14.1055 2.05999 14.0668 2.40104 13.8248 2.58781ZM14.5967 0.00012207H1.12305C0.5027 0.00012207 0.000244141 0.484633 0.000244141 1.08283V9.20313C0.000244141 9.80078 0.5027 10.2858 1.12305 10.2858H14.5967C15.2165 10.2858 15.7195 9.80078 15.7195 9.20313V1.08283C15.7195 0.484633 15.2165 0.00012207 14.5967 0.00012207Z" fill="#DBDBDB"/>
<mask id="mask0_1_217" style="mask-type:alpha" maskUnits="userSpaceOnUse" x="0" y="0" width="16" height="11">
<path fill-rule="evenodd" clip-rule="evenodd" d="M13.8248 2.58781L8.21081 6.92622C8.10807 7.00525 7.984 7.04477 7.85993 7.04477C7.7353 7.04477 7.61123 7.00525 7.50849 6.92622L1.89445 2.58781C1.65249 2.40104 1.61375 2.05999 1.80744 1.82667C2.00168 1.59389 2.35537 1.55653 2.59677 1.74276L7.85993 5.80995L13.1225 1.74276C13.3645 1.55599 13.7176 1.59335 13.9119 1.82667C14.1055 2.05999 14.0668 2.40104 13.8248 2.58781ZM14.5967 0.00012207H1.12305C0.5027 0.00012207 0.000244141 0.484633 0.000244141 1.08283V9.20313C0.000244141 9.80078 0.5027 10.2858 1.12305 10.2858H14.5967C15.2165 10.2858 15.7195 9.80078 15.7195 9.20313V1.08283C15.7195 0.484633 15.2165 0.00012207 14.5967 0.00012207Z" fill="white"/>
</mask>
<g mask="url(#mask0_1_217)">
<rect width="16" height="10.2857" fill="#29D2DD"/>
</g>
</svg>
