<svg width="14" height="14" viewBox="0 0 14 14" fill="none" xmlns="http://www.w3.org/2000/svg">
<path fill-rule="evenodd" clip-rule="evenodd" d="M6.18782 7.52901C3.79816 5.13935 4.13947 4.79804 4.13947 4.79804L5.16389 3.77411C5.54092 3.39708 5.54092 2.78542 5.16389 2.40887L3.03975 0.284252C2.68009 -0.0749206 2.10271 -0.098093 1.7223 0.238872C1.09616 0.793079 0.251817 1.70791 0.0432658 2.75018C-0.298045 4.45673 1.40899 6.84639 4.13947 9.57735C6.87044 12.3078 9.26009 14.0149 10.9666 13.6736C12.0089 13.465 12.9237 12.6207 13.478 11.9945C13.8149 11.6141 13.7917 11.0367 13.4326 10.6771L11.308 8.55294C10.9314 8.17591 10.3197 8.17591 9.94271 8.55294L8.91878 9.57735C8.91878 9.57735 8.57747 9.91866 6.18782 7.52901Z" fill="#DBDBDB"/>
<mask id="mask0_1_221" style="mask-type:alpha" maskUnits="userSpaceOnUse" x="0" y="-1" width="14" height="15">
<path fill-rule="evenodd" clip-rule="evenodd" d="M6.18782 7.52901C3.79816 5.13935 4.13947 4.79804 4.13947 4.79804L5.16389 3.77411C5.54092 3.39708 5.54092 2.78542 5.16389 2.40887L3.03975 0.284252C2.68009 -0.0749206 2.10271 -0.098093 1.7223 0.238872C1.09616 0.793079 0.251817 1.70791 0.0432658 2.75018C-0.298045 4.45673 1.40899 6.84639 4.13947 9.57735C6.87044 12.3078 9.26009 14.0149 10.9666 13.6736C12.0089 13.465 12.9237 12.6207 13.478 11.9945C13.8149 11.6141 13.7917 11.0367 13.4326 10.6771L11.308 8.55294C10.9314 8.17591 10.3197 8.17591 9.94271 8.55294L8.91878 9.57735C8.91878 9.57735 8.57747 9.91866 6.18782 7.52901Z" fill="white"/>
</mask>
<g mask="url(#mask0_1_221)">
<rect width="14" height="14" fill="#29D2DD"/>
</g>
</svg>
